PathFileType	4	(X/Y/Z)	C:/Users/beibeiliu/ov580/test_trc/User3\sequence.19_training_dense_left.trc
DataRate	CameraRate	NumFrames	NumMarkers	Units	OrigDataRate	OrigDataStartFrame	OrigNumFrames
120	120	9	19	mm	120	172	275
Frame#	Time	ThumbCMC			ThumbMCP			ThumbIP			ThumbTip			IndexMCP			IndexPIP			IndexTip			MiddleMCP			MiddlePIP			MiddleTip			RingMCP			RingPIP			RingTip			PinkyMCP			PinkyPIP			PinkyTip			BackHand1			BackHand2			BackHand3	
		X0	Y0	Z0	X1	Y1	Z1	X2	Y2	Z2	X3	Y3	Z3	X4	Y4	Z4	X5	Y5	Z5	X6	Y6	Z6	X7	Y7	Z7	X8	Y8	Z8	X9	Y9	Z9	X10	Y10	Z10	X11	Y11	Z11	X12	Y12	Z12	X13	Y13	Z13	X14	Y14	Z14	X15	Y15	Z15	X16	Y16	Z16	X17	Y17	Z17	X18	Y18	Z18	
171	1.425	-179.128	-6.50745	20.8193	-159.397	-6.20252	4.38208	-142.112	3.9317	-16.5766	-131.386	16.7886	-23.4277	-132.922	-40.1465	-40.4303	-113.27	-49.3222	-49.2731	-88.6604	-59.0535	-58.034	-131.726	-67.2927	-23.453	-112.488	-69.2364	1.48003	-142.659	-54.2844	26.7133	-141.921	-79.561	-10.9053	-128.717	-81.1726	15.9004	-153.515	-59.5243	33.5218	-156.476	-94.1009	-3.50948	-139.438	-87.982	20.2114	-156.944	-69.8066	32.8172	-195.941	-64.5014	-12.9553	-221.749	-50.92	10.0595	-195.201	-23.0744	-1.87113	
172	1.43333	-178.533	-4.19324	21.0544	-159.582	2.36448	4.95026	-144.077	10.73	-17.3236	-132.953	27.1916	-21.8027	-137.084	-31.6137	-40.0002	-114.701	-39.7052	-53.4939	-91.3644	-44.3336	-62.9466	-133.835	-62.1233	-25.7454	-111.259	-63.354	-0.430865	-143.411	-50.9282	23.5835	-137.544	-74.687	-12.7025	-128.116	-74.036	16.5324	-152.817	-58.7484	30.8679	-154.133	-91.9436	-5.11821	-138.726	-83.2908	18.8132	-160.757	-64.4393	32.6941	-193.983	-56.0933	-14.5276	-218.478	-50.502	7.54271	-197.452	-24.2586	-1.83529	
173	1.44167	-178.769	-4.15521	19.8708	-159.789	1.91073	1.2937	-144.545	19.9529	-18.1875	-135.137	31.4545	-24.4439	-139.537	-26.6817	-43.2007	-114.201	-29.964	-60.6149	-96.2049	-37.9532	-71.3085	-133.29	-55.7963	-29.8609	-111.246	-58.861	-3.16196	-142.093	-45.185	19.6535	-141.269	-68.5642	-16.9668	-127.568	-73.2524	10.9837	-149.323	-50.5683	27.2279	-150.624	-84.9269	-10.6665	-136.927	-77.9932	13.5687	-158.389	-62.1274	29.5001	-196.664	-50.2901	-15.3319	-214.583	-46.7305	6.64839	-194.311	-16.4323	-4.81799	
174	1.45	-177.286	-1.02858	20.0283	-161.093	5.21532	0.354407	-146.258	25.5262	-17.67	-136.858	35.5306	-27.1192	-143.443	-14.6846	-45.557	-121.8	-21.306	-65.531	-100.829	-24.1548	-81.743	-134.749	-48.8878	-35.9573	-113.05	-55.2193	-10.1338	-138.17	-46.2266	14.1947	-141.364	-67.1696	-22.1586	-126.162	-63.6645	4.68657	-149.492	-49.2376	22.0892	-151.692	-80.5245	-16.2468	-135.45	-74.1488	4.97259	-155.35	-59.4491	23.7178	-197.922	-49.5739	-18.9137	-217.215	-44.0304	6.6539	-196.404	-13.0878	-2.66719	
175	1.45833	-176.931	0.761571	24.1524	-159.758	11.724	2.42146	-146.33	25.5749	-16.0943	-135.738	42.9207	-21.2294	-148.782	-11.7006	-50.3482	-131.487	-7.26841	-67.9949	-112.891	-9.25199	-89.0151	-138.564	-43.8268	-43.6538	-114.856	-53.373	-24.3996	-140.54	-42.9714	8.09451	-145.386	-60.2823	-30.1509	-127.431	-61.2198	-4.62084	-146.102	-48.7013	15.9137	-154.777	-77.1254	-24.5452	-138.088	-73.6276	-3.82185	-153.259	-57.45	18.0078	-201.274	-41.627	-15.1499	-216.301	-38.0406	7.80479	-197.393	-9.18492	0.0312172	
176	1.46667	-172.327	1.00721	21.9949	-157.131	12.0951	4.15769	-143.721	27.5294	-12.7679	-132.742	42.2531	-19.5412	-155.405	-4.21786	-51.762	-139.763	-2.6859	-76.0934	-127.426	0.0609873	-94.4413	-146.594	-37.524	-50.9961	-120.997	-48.8989	-36.651	-141.082	-42.537	1.15336	-154.254	-56.2842	-39.0223	-134.719	-66.1482	-18.0344	-150.992	-47.6473	8.24351	-163.809	-67.6688	-34.577	-144.626	-73.6661	-12.5636	-157.015	-59.4048	9.50504	-206.252	-36.2875	-17.2884	-219.467	-34.5072	8.71559	-196.428	-3.96702	-0.197695	
177	1.475	-168.474	1.13159	26.2554	-154.023	10.6443	6.23871	-141.906	25.8699	-8.5079	-129.315	41.8616	-20.6183	-159.53	5.33897	-53.9687	-150.193	6.73434	-75.7989	-137.756	10.9442	-100.018	-158.608	-29.9953	-55.3528	-131.113	-50.3573	-45.3803	-145.416	-47.1042	-10.7782	-162.54	-48.1703	-47.6936	-144.481	-65.2473	-31.299	-156.061	-50.1457	-0.0571439	-180.32	-65.27	-41.0035	-156.052	-74.311	-26.2173	-164.761	-60.4826	1.59705	-210.543	-28.7042	-19.3656	-222.988	-31.9897	14.0146	-198.507	-2.44834	5.80304	
178	1.48333	-164.654	-4.0167	26.5663	-154.538	3.75708	4.08213	-136.654	25.6248	-8.8669	-123.355	36.658	-16.9902	-163.888	7.6148	-49.424	-158.577	11.4619	-75.3428	-147.994	19.4621	-101.229	-162.282	-24.0726	-61.2086	-140.3	-47.7161	-53.3616	-151.748	-46.5149	-16.938	-174.418	-42.8922	-52.2677	-156.681	-66.4624	-37.9017	-161.055	-52.1415	-7.7574	-188.381	-60.9041	-47.4894	-167.336	-70.2986	-36.1952	-170.425	-59.3597	-6.84438	-215.446	-24.4288	-15.9728	-221.875	-23.7895	14.4652	-195.365	0.588113	9.89636	
179	1.49167	-162.987	-10.2006	27.6463	-150.913	-0.685517	8.58605	-135.525	17.7339	-11.14	-122.371	27.5704	-20.5521	-168.427	10.3954	-53.1614	-161.085	17.3774	-71.3473	-159.815	20.2006	-97.3754	-171.686	-19.7581	-60.3317	-150.996	-45.2199	-62.0626	-159.674	-48.8232	-23.2002	-186.684	-42.3092	-54.1071	-165.478	-62.4645	-46.3536	-169.854	-53.0495	-12.3053	-197.44	-56.5789	-49.9849	-175.555	-68.4153	-37.8428	-180.149	-60.2752	-10.0946	-218.757	-19.9217	-10.6617	-221.392	-23.696	20.5686	-195.317	-1.94776	13.8681	
